<?xml version="1.0" encoding="UTF-8" standalone="no" ?>
<!DOCTYPE svg PUBLIC "-//W3C//DTD SVG 1.1//EN" "http://www.w3.org/Graphics/SVG/1.1/DTD/svg11.dtd">
<svg xmlns="http://www.w3.org/2000/svg" xmlns:xlink="http://www.w3.org/1999/xlink" version="1.1" width="1080" height="1080" viewBox="0 0 1080 1080" xml:space="preserve">
<desc>Created with Fabric.js 5.2.4</desc>
<defs>
</defs>
<g transform="matrix(1 0 0 1 540 540)" id="a634d5cd-9e61-49fc-9162-2a5858606a1c"  >
<rect style="stroke: none; stroke-width: 1; stroke-dasharray: none; stroke-linecap: butt; stroke-dashoffset: 0; stroke-linejoin: miter; stroke-miterlimit: 4; fill: rgb(255,255,255); fill-rule: nonzero; opacity: 1; visibility: hidden;" vector-effect="non-scaling-stroke"  x="-540" y="-540" rx="0" ry="0" width="1080" height="1080" />
</g>
<g transform="matrix(1 0 0 1 540 540)" id="22a311d0-4aea-4909-9cb3-46d474395cad"  >
</g>
<g transform="matrix(2.25 0 0 2.25 566.9 540)"  >
<g style="" vector-effect="non-scaling-stroke"   >
		<g transform="matrix(1 0 0 1 0 0)"  >
<path style="stroke: none; stroke-width: 1; stroke-dasharray: none; stroke-linecap: butt; stroke-dashoffset: 0; stroke-linejoin: miter; stroke-miterlimit: 4; fill: rgb(0,0,0); fill-rule: nonzero; opacity: 1;" vector-effect="non-scaling-stroke"  transform=" translate(-107.51, -181.46)" d="M 0 0 C 1.11887652 -0.00763173 1.11887652 -0.00763173 2.26035661 -0.01541764 C 4.75512754 -0.03109025 7.24986961 -0.03965332 9.74467468 -0.04811096 C 11.53536663 -0.05765338 13.32605675 -0.06754471 15.116745 -0.07775879 C 20.99229253 -0.1090906 26.86785402 -0.12940045 32.74345398 -0.14796448 C 33.74373871 -0.1512618 34.74402343 -0.15455912 35.77461982 -0.15795636 C 45.21041479 -0.18872765 54.64621303 -0.2154294 64.08204365 -0.23237514 C 76.14323449 -0.25429204 88.20398083 -0.29629974 100.26499397 -0.36581272 C 108.75092204 -0.4130587 117.23673018 -0.43730924 125.72278565 -0.44457203 C 130.78917364 -0.44952603 135.85506003 -0.46458401 140.9213047 -0.50431633 C 145.68786499 -0.54120808 150.45363764 -0.54958407 155.22031403 -0.5363102 C 156.96661469 -0.5363641 158.71295052 -0.54664108 160.4591198 -0.56806183 C 176.44426793 -0.75362831 176.44426793 -0.75362831 181.83217716 4.35390759 C 182.3842657 4.95012574 182.93635424 5.5463439 183.50517273 6.16062927 C 184.15017699 6.76563672 184.79518126 7.37064417 185.4597311 7.99398518 C 187.62127314 10.0234305 189.7129473 12.10927307 191.80131531 14.21385193 C 192.98089813 15.39058723 192.98089813 15.39058723 194.18431091 16.59109497 C 196.76100865 19.16411263 199.33047708 21.744216 201.89970398 24.32469177 C 203.69675795 26.12293894 205.49418295 27.92081541 207.29196167 29.71833801 C 211.04802586 33.47596214 214.80084135 37.23678591 218.55082703 41.00047302 C 222.88056018 45.34596768 227.21553441 49.6861769 231.55352098 54.02343142 C 235.73988966 58.20918918 239.92333741 62.39785516 244.10530663 66.58800888 C 245.88014032 68.36602439 247.65558001 70.1434352 249.4316349 71.92023087 C 251.90895186 74.39971408 254.38294934 76.88246096 256.85600281 79.36619568 C 257.59005844 80.09979813 258.32411407 80.83340057 259.08041382 81.5892334 C 259.75452301 82.26760757 260.4286322 82.94598175 261.12316895 83.64491272 C 261.99941783 84.52367537 261.99941783 84.52367537 262.89336872 85.42019081 C 263.42526404 85.9945355 263.95715937 86.5688802 264.50517273 87.16062927 C 265.34030962 87.97825949 265.34030962 87.97825949 266.19231796 88.81240749 C 268.25254537 92.4974083 267.92152524 96.09491236 267.89285278 100.24789429 C 267.90093109 101.64196254 267.90093109 101.64196254 267.90917259 103.06419379 C 267.92350827 106.18623504 267.91633437 109.30785564 267.90922546 112.42991638 C 267.9149264 114.66554608 267.92188958 116.90117287 267.93002319 119.13679504 C 267.94800841 125.21785739 267.94677513 131.29877584 267.94108081 137.37985682 C 267.93799412 142.45885369 267.94407622 147.53782271 267.95011955 152.61681563 C 267.96498788 165.29315769 267.9613369 177.96941305 267.94925625 190.64574862 C 267.93934372 201.63310519 267.95222848 212.62029288 267.97619044 223.60762339 C 268.00063577 234.90230119 268.00977615 246.1969026 268.00353771 257.49161345 C 268.00017262 263.82730631 268.00255256 270.16285996 268.01978874 276.49853325 C 268.03531003 282.4649572 268.0312446 288.43106085 268.0124836 294.39747238 C 268.00881087 296.58025491 268.0118675 298.76306141 268.02236938 300.94582176 C 268.10492336 319.5328371 266.03567095 334.37332238 252.63017273 348.47312927 C 243.98539581 356.58694101 232.57346777 363.27047562 220.38644981 363.29205704 C 219.56953804 363.29589818 218.75262627 363.29973933 217.9109596 363.30369687 C 217.01895026 363.30283039 216.12694093 363.30196391 215.207901 363.30107117 C 213.78003106 363.30552785 213.78003106 363.30552785 212.32331526 363.31007457 C 209.12529927 363.31876409 205.9273207 363.32027005 202.72929382 363.32176208 C 200.43953878 363.32639014 198.1497845 363.33141478 195.86003113 363.33680725 C 189.63252272 363.34993588 183.4050251 363.35637731 177.17750502 363.36081791 C 173.28648833 363.36374834 169.39547459 363.36785313 165.50445938 363.37232208 C 154.724752 363.38443197 143.94504847 363.39481326 133.1653347 363.39819717 C 132.47556977 363.39841674 131.78580485 363.39863631 131.07513795 363.39886253 C 130.38374711 363.3990808 129.69235628 363.39929908 128.9800142 363.39952397 C 127.57905793 363.39996743 126.17810166 363.400414 124.77714539 363.40086365 C 124.08222664 363.40108508 123.38730789 363.40130651 122.671331 363.40153465 C 111.42008842 363.40547966 100.16891072 363.42292463 88.91769318 363.44622317 C 77.35748603 363.46996761 65.79732064 363.48214277 54.23708785 363.48356509 C 47.75003991 363.48461277 41.26308346 363.49051259 34.7760582 363.5083847 C 28.6709948 363.52487683 22.56609154 363.52701522 16.46101379 363.5182457 C 14.22375179 363.5174759 11.98648114 363.52181047 9.74924088 363.53170395 C 6.68741985 363.54444659 3.62616396 363.53853376 0.56434631 363.52812195 C -0.31427869 363.53617835 -1.1929037 363.54423476 -2.09815371 363.5525353 C -16.63711328 363.43745689 -28.58515831 356.97856339 -38.79170227 346.98875427 C -46.86236294 338.54488386 -52.6035401 327.26225759 -52.62904835 315.37594604 C -52.63350619 314.41048166 -52.63796404 313.44501728 -52.64255697 312.4502964 C -52.6423726 311.39234053 -52.64218824 310.33438465 -52.64199829 309.24436951 C -52.64567498 308.11827459 -52.64935167 306.99217968 -52.65313977 305.83196068 C -52.66418583 302.04437689 -52.66802205 298.25682052 -52.67182922 294.46922302 C -52.67756123 291.7590715 -52.68472722 289.04892409 -52.69174194 286.33877563 C -52.71149508 278.1949708 -52.72157194 270.05116475 -52.73046973 261.90734196 C -52.73485526 258.06954938 -52.74022145 254.23175817 -52.7454586 250.39396667 C -52.76247113 237.63094876 -52.77696379 224.86793169 -52.78420734 212.10490417 C -52.78611716 208.79356383 -52.7880375 205.4822235 -52.78999329 202.17088318 C -52.79047703 201.34789262 -52.79096077 200.52490206 -52.79145917 199.67697239 C -52.79975381 186.35454612 -52.82508103 173.0322098 -52.85757396 159.70982277 C -52.89068288 146.0229262 -52.90865964 132.33607527 -52.91185158 118.64913845 C -52.91401334 110.96816874 -52.92271258 103.28733014 -52.94831276 95.60639954 C -52.97007236 89.06274301 -52.97804452 82.51924944 -52.96834598 75.97556084 C -52.96381604 72.64025473 -52.96781377 69.3055557 -52.98510742 65.97025108 C -53.00285233 62.34413954 -52.99570616 58.71887108 -52.98257446 55.09275818 C -52.99354371 54.05264808 -53.00451295 53.01253798 -53.0158146 51.94090939 C -52.88908048 37.37351961 -46.55942553 24.81474071 -36.75263977 14.26219177 C -26.59691313 4.80928359 -13.7447275 0.02343434 0 0 Z M 182.50517273 39.16062927 C 182.00179215 52.65402533 181.78457912 64.36267071 190.73954773 75.37547302 C 197.14778362 81.85459648 204.41443867 85.21461969 213.56376648 85.35594177 C 215.35684029 85.3428057 217.14986486 85.31918795 218.94267273 85.28562927 C 220.32615906 85.27209412 220.32615906 85.27209412 221.7375946 85.25828552 C 223.99374552 85.23490572 226.24926887 85.2003515 228.50517273 85.16062927 C 223.75789288 79.45369654 218.67697778 74.18663606 213.42314148 68.94578552 C 212.56835709 68.0900444 211.71357269 67.23430328 210.83288574 66.35263062 C 209.03810894 64.55717673 207.24208237 62.76297136 205.44487 60.96995544 C 202.68060297 58.21108307 199.92176114 55.44686538 197.16337585 52.68211365 C 195.41695197 50.93634985 193.67021829 49.1908959 191.92314148 47.44578552 C 191.0940477 46.61466751 190.26495392 45.7835495 189.41073608 44.92724609 C 188.64936844 44.16903061 187.88800079 43.41081512 187.1035614 42.62962341 C 186.09479195 41.62204735 186.09479195 41.62204735 185.06564331 40.59411621 C 183.73559199 39.04787797 183.73559199 39.04787797 182.50517273 39.16062927 Z M 13.50517273 58.16062927 C 7.68125226 66.94402448 4.92887994 77.24222097 7.00517273 87.67234802 C 8.3824793 92.78246841 10.33913219 97.00474437 13.32157898 101.37156677 C 14.55581381 103.23717586 15.54133522 105.1441213 16.50517273 107.16062927 C 15.45329773 108.15062927 15.45329773 108.15062927 14.38017273 109.16062927 C 6.4792259 117.19586982 1.46309057 126.06224359 1.06767273 137.59812927 C 1.24951281 141.50455573 1.86075638 144.13843916 4.50517273 147.16062927 C 7.7203941 149.48889303 10.61347698 149.55774108 14.50517273 149.16062927 C 18.32339928 147.42507175 19.93189292 145.99592083 21.50517273 142.16062927 C 21.82171094 140.41831637 22.08938534 138.66668609 22.31767273 136.91062927 C 23.37487342 130.81952685 25.21840835 125.69571211 30.24736023 121.81687927 C 36.3622726 118.142683 42.63947689 117.02261201 49.62626648 118.65672302 C 56.30834964 120.8925051 60.22515086 124.96209333 63.50517273 131.16062927 C 64.34052059 134.45763023 64.9490129 137.7576214 65.56376648 141.10203552 C 66.61469229 144.51645422 67.76983821 145.92071179 70.50517273 148.16062927 C 73.325186 149.57063591 75.37524528 149.40611378 78.50517273 149.16062927 C 82.31036138 147.43099807 83.94671109 145.99472075 85.50517273 142.16062927 C 87.11087093 131.85428732 83.36205375 122.36127994 77.44267273 114.09812927 C 75.27680058 111.26711404 73.09003325 108.61664939 70.50517273 106.16062927 C 70.90349304 105.59215271 71.30181335 105.02367615 71.71220398 104.43797302 C 77.84396946 95.50140971 81.65671992 87.20575089 80.50517273 76.16062927 C 78.01865658 64.55215104 73.21548204 56.07305285 63.50517273 49.16062927 C 45.92334015 38.20801226 26.87755012 43.45331575 13.50517273 58.16062927 Z M 119.50517273 134.16062927 C 118.31127737 138.09346104 118.05717809 140.12316799 119.69267273 143.91062927 C 122.60875452 147.53059287 124.26891918 149.026929 129.02761841 149.5415802 C 130.45679548 149.55936446 131.8862365 149.56061869 133.31547546 149.54881287 C 134.09806732 149.55406982 134.88065918 149.55932678 135.68696594 149.56474304 C 138.27110317 149.57793476 140.8546231 149.56920724 143.43876648 149.55906677 C 145.23711261 149.56108795 147.03545794 149.56399976 148.83380127 149.56776428 C 152.60234889 149.57218668 156.37068312 149.56576008 160.13920593 149.55174255 C 164.96581001 149.53466299 169.79191316 149.54448453 174.6184988 149.56245995 C 178.33230347 149.57331057 182.04598978 149.56984536 185.75979805 149.56207657 C 187.53917055 149.56007746 189.31855385 149.56252368 191.09791374 149.56951523 C 193.5873896 149.57714943 196.0760595 149.56549783 198.56547546 149.54881287 C 199.66519936 149.55792191 199.66519936 149.55792191 200.78713989 149.56721497 C 205.19882736 149.51254399 207.98092085 148.84550101 211.50517273 146.16062927 C 213.83343648 142.9454079 213.90228454 140.05232502 213.50517273 136.16062927 C 212.28397907 133.47400322 211.32308746 131.72607012 208.88294983 130.03915405 C 205.51803499 128.79590839 202.25141717 128.85744078 198.71073914 128.85423279 C 197.92975357 128.84590927 197.14876801 128.83758575 196.34411621 128.82901001 C 193.76493835 128.80493467 191.1860135 128.79614114 188.60673523 128.78953552 C 186.81078517 128.78056757 185.01483586 128.77144569 183.21888733 128.76217651 C 179.45459681 128.74569086 175.6903952 128.73798713 171.92607117 128.73509216 C 167.1083485 128.72970764 162.29146401 128.69202327 157.47397804 128.646348 C 153.76442938 128.61657031 150.05508244 128.60936846 146.34542465 128.60836601 C 144.56963129 128.6041654 142.79383724 128.5917374 141.01816177 128.57084846 C 138.53095008 128.5439172 136.04567963 128.54876336 133.55839539 128.56126404 C 132.8288414 128.54642975 132.09928741 128.53159546 131.34762573 128.51631165 C 125.65696244 128.59754041 123.29939787 130.19141358 119.50517273 134.16062927 Z M 2.69267273 186.91062927 C 0.95949164 190.19455133 1.0558464 192.50182912 1.50517273 196.16062927 C 3.37891286 199.40364104 4.70111233 200.82076325 8.15589237 202.2810545 C 11.98101468 203.28559301 15.54591371 203.44177976 19.46865845 203.42132568 C 20.25288809 203.42515123 21.03711773 203.42897678 21.84511191 203.43291825 C 24.46355719 203.44320761 27.08178153 203.43926387 29.70024109 203.43528748 C 31.58137209 203.43963618 33.46250133 203.44481986 35.34362793 203.45077515 C 40.44690565 203.46415882 45.55010929 203.46474455 50.65340114 203.46221185 C 54.9153864 203.46114178 59.17735669 203.46602638 63.43933874 203.47081727 C 73.49441655 203.48191012 83.549457 203.482351 93.60453796 203.4763031 C 103.9746645 203.4702616 114.34465542 203.48257934 124.71475881 203.50387317 C 133.62193063 203.52148993 142.52905929 203.52749044 151.43624789 203.52423543 C 156.75448168 203.52242267 162.07261871 203.52505817 167.39083672 203.53894997 C 172.39199674 203.55152497 177.39294532 203.54958723 182.3941021 203.53653908 C 184.2278704 203.5341731 186.06165356 203.53690873 187.89540482 203.5451622 C 190.40208261 203.55562957 192.90805086 203.54752935 195.41470337 203.53485107 C 196.13728283 203.54222536 196.8598623 203.54959964 197.60433811 203.55719739 C 203.31623511 203.49657875 208.12476301 202.31067676 212.44267273 198.41062927 C 214.02313399 195.06377013 214.01002536 192.82081085 213.50517273 189.16062927 C 211.48149378 185.68703475 209.39500449 183.45723986 205.50517273 182.16062927 C 202.9069831 182.0606714 200.33551663 182.01718735 197.73713684 182.02018738 C 196.53801928 182.01573069 196.53801928 182.01573069 195.31467712 182.01118398 C 192.62702582 182.00248919 189.93941902 182.00098808 187.25175476 181.99949646 C 185.32841395 181.99486888 183.40507405 181.98984431 181.48173523 181.98445129 C 176.25033939 181.97132055 171.01895638 181.96488117 165.78754663 181.96044064 C 162.52088275 181.95751135 159.25422239 181.95340685 155.98756027 181.94893646 C 145.77176337 181.93526054 135.5559745 181.92559401 125.34016907 181.92173457 C 113.53825288 181.91725167 101.73645239 181.89969335 89.93457139 181.87073398 C 80.81773297 181.84913774 71.70092715 181.83903141 62.58406341 181.83769345 C 57.1361731 181.83664406 51.68839154 181.83070769 46.24052811 181.81287384 C 41.11713206 181.79642847 35.99392691 181.79422045 30.87051392 181.80301285 C 28.98913945 181.80378509 27.10775487 181.79941601 25.2264061 181.7895546 C 22.6597671 181.77688907 20.09380976 181.78268229 17.5271759 181.7931366 C 16.7811606 181.78508019 16.0351453 181.77702379 15.26652348 181.76872325 C 9.78514644 181.82100867 6.60068924 183.13737195 2.69267273 186.91062927 Z M 2.56767273 239.91062927 C 0.98721147 243.25748842 1.0003201 245.50044769 1.50517273 249.16062927 C 3.52885168 252.6342238 5.61534096 254.86401868 9.50517273 256.16062927 C 12.10336235 256.26058715 14.67482882 256.30407119 17.27320862 256.30107117 C 18.47232618 256.30552785 18.47232618 256.30552785 19.69566834 256.31007457 C 22.38331964 256.31876936 25.07092644 256.32027047 27.7585907 256.32176208 C 29.68193151 256.32638966 31.60527141 256.33141424 33.52861023 256.33680725 C 38.76000607 256.34993799 43.99138908 256.35637738 49.22279882 256.36081791 C 52.48946271 256.36374719 55.75612307 256.36785169 59.02278519 256.37232208 C 69.23858209 256.385998 79.45437096 256.39566453 89.67017639 256.39952397 C 101.47209258 256.40400688 113.27389307 256.4215652 125.07577407 256.45052457 C 134.19261249 256.4721208 143.30941831 256.48222713 152.42628205 256.48356509 C 157.87417235 256.48461448 163.32195392 256.49055086 168.76981735 256.5083847 C 173.8932134 256.52483007 179.01641855 256.5270381 184.13983154 256.5182457 C 186.02120601 256.51747346 187.90259059 256.52184254 189.78393936 256.53170395 C 192.35057836 256.54436948 194.9165357 256.53857626 197.48316956 256.52812195 C 198.22918486 256.53617835 198.97520015 256.54423476 199.74382198 256.5525353 C 205.22519902 256.50024987 208.40965621 255.1838866 212.31767273 251.41062927 C 214.05085382 248.12670721 213.95449906 245.81942942 213.50517273 242.16062927 C 211.6314326 238.91761751 210.30923313 237.5004953 206.85445309 236.04020405 C 203.02933078 235.03566554 199.46443175 234.87947879 195.54168701 234.89993286 C 194.75745737 234.89610731 193.97322773 234.89228177 193.16523355 234.88834029 C 190.54678827 234.87805094 187.92856393 234.88199467 185.31010437 234.88597107 C 183.42897337 234.88162236 181.54784413 234.87643869 179.66671753 234.8704834 C 174.56343981 234.85709972 169.46023617 234.856514 164.35694432 234.8590467 C 160.09495906 234.86011676 155.83298877 234.85523217 151.57100672 234.85044128 C 141.51592891 234.83934843 131.46088846 234.83890755 121.4058075 234.84495544 C 111.03568096 234.85099695 100.66569004 234.8386792 90.29558665 234.81738538 C 81.38841483 234.79976862 72.48128617 234.79376811 63.57409757 234.79702312 C 58.25586378 234.79883588 52.93772675 234.79620037 47.61950874 234.78230858 C 42.61834872 234.76973357 37.61740014 234.77167131 32.61624336 234.78471947 C 30.78247506 234.78708544 28.9486919 234.78434981 27.11494064 234.77609634 C 24.60826285 234.76562897 22.1022946 234.7737292 19.59564209 234.78640747 C 18.51177289 234.77534604 18.51177289 234.77534604 17.40600735 234.76406115 C 11.69411035 234.82467979 6.88558245 236.01058178 2.56767273 239.91062927 Z M 3.50517273 292.16062927 C 1.17690898 295.37585065 1.10806092 298.26893352 1.50517273 302.16062927 C 2.72394661 304.8419318 3.6891207 306.59131523 6.1167841 308.28496075 C 9.5403889 309.54017647 12.87096837 309.43933016 16.46939087 309.42132568 C 17.27782411 309.42515123 18.08625734 309.42897678 18.91918856 309.43291825 C 21.63142823 309.44324714 24.34345616 309.43925632 27.05570984 309.43528748 C 28.99890336 309.439634 30.94209517 309.44481695 32.88528442 309.45077515 C 38.16622586 309.46418254 43.4470958 309.46474189 48.72805095 309.46221185 C 53.13427323 309.46114335 57.54048098 309.46602238 61.94670016 309.47081727 C 72.3401441 309.4819184 82.7335519 309.4823464 93.1269989 309.4763031 C 103.85498519 309.47026128 114.58284039 309.48257826 125.31080431 309.50387317 C 134.51684022 309.52147623 143.72283435 309.52749259 152.92888647 309.52423543 C 158.42929081 309.52242041 163.92960164 309.52508052 169.42999077 309.53894997 C 174.60183717 309.55150266 179.77347887 309.54960845 184.94532204 309.53653908 C 186.84443098 309.53416819 188.74355422 309.53692625 190.64264679 309.5451622 C 193.23332728 309.55558807 195.82331563 309.54756268 198.41397095 309.53485107 C 199.54364356 309.5459125 199.54364356 309.5459125 200.69613785 309.55719739 C 205.14190706 309.51124416 207.9566446 308.87781525 211.50517273 306.16062927 C 213.83343648 302.9454079 213.90228454 300.05232502 213.50517273 296.16062927 C 212.28639885 293.47932674 211.32122476 291.72994331 208.89356136 290.0362978 C 205.46995656 288.78108207 202.13937709 288.88192839 198.54095459 288.89993286 C 197.73252135 288.89610731 196.92408811 288.89228177 196.0911569 288.88834029 C 193.37891723 288.87801141 190.6668893 288.88200222 187.95463562 288.88597107 C 186.0114421 288.88162454 184.06825029 288.87644159 182.12506104 288.8704834 C 176.8441196 288.85707601 171.56324965 288.85651665 166.28229451 288.8590467 C 161.87607223 288.8601152 157.46986448 288.85523617 153.0636453 288.85044128 C 142.67020136 288.83934014 132.27679356 288.83891215 121.88334656 288.84495544 C 111.15536027 288.85099727 100.42750507 288.83868028 89.69954115 288.81738538 C 80.49350524 288.79978231 71.28751111 288.79376596 62.08145899 288.79702312 C 56.58105465 288.79883813 51.08074382 288.79617803 45.58035469 288.78230858 C 40.40850829 288.76975589 35.23686659 288.77165009 30.06502342 288.78471947 C 28.16591448 288.78709036 26.26679124 288.7843323 24.36769867 288.77609634 C 21.77701818 288.76567048 19.18702983 288.77369586 16.59637451 288.78640747 C 15.84325944 288.77903319 15.09014436 288.7716589 14.31420761 288.76406115 C 9.86843839 288.81001438 7.05370085 289.4434433 3.50517273 292.16062927 Z" stroke-linecap="round" />
</g>
		<g transform="matrix(1 0 0 1 -63.94 -100.95)"  >
<path style="stroke: none; stroke-width: 1; stroke-dasharray: none; stroke-linecap: butt; stroke-dashoffset: 0; stroke-linejoin: miter; stroke-miterlimit: 4; fill: rgb(0,0,0); fill-rule: nonzero; opacity: 1;" vector-effect="non-scaling-stroke"  transform=" translate(7.25, -15.41)" d="M 0 0 C 4.14801986 2.42158802 6.55656291 4.65661574 8.68359375 9.05078125 C 9.50825105 14.57078463 9.43184431 19.49885415 6.99609375 24.55078125 C 2.25863934 29.67235359 -0.81385319 31.79133288 -7.69140625 32.30078125 C -12.30263764 31.98276529 -15.46154038 30.92564568 -18.765625 27.5859375 C -23.28253941 22.2924762 -23.72567112 18.93539397 -23.66015625 12.10546875 C -23.15722428 7.63623234 -21.61481174 5.04296872 -18.31640625 2.05078125 C -12.94157731 -1.82409543 -6.14784851 -2.51927013 0 0 Z" stroke-linecap="round" />
</g>
</g>
</g>
</svg>