<?xml version="1.0" encoding="UTF-8"?><svg id="Layer_1" xmlns="http://www.w3.org/2000/svg" xmlns:xlink="http://www.w3.org/1999/xlink" viewBox="0 0 1080 1080"><defs><filter id="luminosity-invert-noclip" x="0" y="0" width="1080" height="1080" color-interpolation-filters="sRGB" filterUnits="userSpaceOnUse"><feColorMatrix result="cm" values="-1 0 0 0 1 0 -1 0 0 1 0 0 -1 0 1 0 0 0 1 0"/><feFlood flood-color="#fff" result="bg"/><feBlend in="cm" in2="bg"/></filter><mask id="mask" x="0" y="0" width="1080" height="1080" maskUnits="userSpaceOnUse"><g filter="url(#luminosity-invert-noclip)"><g id="shapes"><rect id="rect11" x="128.78" y="376.88" width="180.9" height="544.14" fill="#fff"/><path id="path13-0" d="M220.46,114.5c-61.89,0-102.33,40.69-102.33,94.02s39.21,94.02,99.94,94.02h1.17c63.08,0,102.34-41.81,102.34-94.02-1.17-53.33-39.26-94.02-101.11-94.02h0Z" fill="#fff"/><path id="path15" d="M753.63,364.08c-95.96,0-138.94,52.77-163,89.84v-77.04h-180.85c2.4,51.04,0,544.14,0,544.14h180.85v-303.88c0-16.27,1.17-32.53,5.96-44.15,13.05-32.48,42.83-66.13,92.8-66.13,65.42,0,91.62,49.92,91.62,123.03v291.14h180.86v-312.04c0-167.14-89.24-244.89-208.24-244.89Z" fill="#fff"/></g></g></mask></defs><g id="g5891"><g mask="url(#mask)"><path id="background" d="M1080,135c0-74.51-60.49-135-135-135H135C60.49,0,0,60.49,0,135v810c0,74.51,60.49,135,135,135h810c74.51,0,135-60.49,135-135V135Z" fill="#2867b2" fill-rule="evenodd"/></g></g></svg>