<?xml version="1.0" encoding="UTF-8"?><svg id="Layer_1" xmlns="http://www.w3.org/2000/svg" viewBox="0 0 1053.45 1003.29"><path d="M1003.2,414.34v-183.2l-484.14,253.63c-10.93,5.72-23.98,5.72-34.91,0L0,231.14v408.4l.26,9.25c4.8,85.73,75.83,153.77,162.76,153.77h324.38c9.21-21.16,22.34-40.49,38.79-56.94l296.06-296.06c48.92-48.92,120.94-60.66,180.94-35.22ZM840.18,0H163.02l-9.33.26C73.45,4.79,8.72,67.35.81,146.65l500.79,262.32,500.79-262.32C994.18,64.3,924.68,0,840.18,0ZM857.73,485.02l-296.07,296.06c-17.26,17.26-29.5,38.89-35.43,62.57l-22.96,91.83c-9.98,39.93,26.19,76.11,66.13,66.12l91.83-22.96c23.68-5.92,45.31-18.16,62.57-35.43l296.06-296.06c44.77-44.77,44.77-117.36,0-162.14-44.77-44.78-117.36-44.78-162.14,0Z" fill="#212121"/></svg>