<?xml version="1.0" encoding="UTF-8"?>
<svg id="Layer_1" data-name="Layer 1" xmlns="http://www.w3.org/2000/svg" xmlns:xlink="http://www.w3.org/1999/xlink" viewBox="0 0 1080 1080">
  <defs>
    <filter id="luminosity-invert-noclip" x="0" y="0" width="1080" height="1080" color-interpolation-filters="sRGB" filterUnits="userSpaceOnUse">
      <feColorMatrix result="cm" values="-1 0 0 0 1 0 -1 0 0 1 0 0 -1 0 1 0 0 0 1 0"/>
      <feFlood flood-color="#fff" result="bg"/>
      <feBlend in="cm" in2="bg"/>
    </filter>
    <mask id="mask" x="0" y="0" width="1080" height="1080" maskUnits="userSpaceOnUse">
      <g filter="url(#luminosity-invert-noclip)">
        <path id="Logo_FIXED" data-name="Logo — FIXED" d="M414.72,814.32c254.61,0,393.93-211.14,393.93-393.93,0-5.94,0-11.88-.27-17.82,27-19.44,50.49-44.01,69.12-71.82-24.84,11.07-51.57,18.36-79.65,21.87,28.62-17.01,50.49-44.28,61.02-76.68-26.73,15.93-56.43,27.27-88.02,33.48-25.38-27-61.29-43.74-100.98-43.74-76.41,0-138.51,62.1-138.51,138.51,0,10.8,1.35,21.33,3.51,31.59-115.02-5.67-217.08-61.02-285.39-144.72-11.88,20.52-18.63,44.28-18.63,69.66,0,48.06,24.57,90.45,61.56,115.29-22.68-.81-44.01-7.02-62.64-17.28v1.89c0,66.96,47.79,123.12,110.97,135.81-11.61,3.24-23.76,4.86-36.45,4.86-8.91,0-17.55-.81-25.92-2.43,17.55,55.08,68.85,95.04,129.33,96.12-47.52,37.26-107.19,59.4-171.99,59.4-11.07,0-22.14-.54-32.94-1.89,61.02,38.88,133.92,61.83,211.95,61.83" fill="#fff"/>
      </g>
    </mask>
  </defs>
  <g mask="url(#mask)">
    <path id="Dark_Blue" data-name="Dark Blue" d="M945,1080H135c-74.52,0-135-60.48-135-135V135C0,60.48,60.48,0,135,0h810c74.52,0,135,60.48,135,135v810c0,74.52-60.48,135-135,135Z" fill="#1da1f2"/>
  </g>
</svg>